<svg width="26" height="26" viewBox="0 0 26 26" fill="none" xmlns="http://www.w3.org/2000/svg">
<path d="M13 0C5.83143 0 0 5.83143 0 13C0 20.1686 5.83143 26 13 26C20.1686 26 26 20.1686 26 13C26 5.83143 20.1686 0 13 0ZM11.5143 22.9023C9.64229 22.62 7.93371 21.8326 6.552 20.6663L11.5143 16.2909V22.9023ZM11.5143 3.09029V12.324L4.59086 18.4377C3.57314 16.8703 2.97143 15.0057 2.97143 13C2.97143 7.97829 6.68571 3.81829 11.5143 3.09771V3.09029ZM14.4857 22.9023V3.09029C19.3143 3.81086 23.0286 7.97086 23.0286 12.9926C23.0286 18.0143 19.3143 22.1743 14.4857 22.9023Z" fill="#E11D48"/>
</svg>
