<?xml version="1.0" encoding="utf-8"?>
<!-- Generator: Adobe Illustrator 16.2.1, SVG Export Plug-In . SVG Version: 6.00 Build 0)  -->
<!DOCTYPE svg PUBLIC "-//W3C//DTD SVG 1.1//EN" "http://www.w3.org/Graphics/SVG/1.1/DTD/svg11.dtd">
<svg version="1.1" id="圖層_1" xmlns="http://www.w3.org/2000/svg" xmlns:xlink="http://www.w3.org/1999/xlink" x="0px" y="0px"
	 width="127px" height="104px" viewBox="0 0 127 104" enable-background="new 0 0 127 104" xml:space="preserve">
<rect x="29" y="48" fill="#94A3B8" width="96" height="50"/>
<rect x="27" fill="none" width="100" height="100"/>
<g>
	<path fill="#FFFFFF" d="M112.417,26.906H89.5l2.084-2.083H114.5L127,47.917V100H27V47.917l12.5-23.093h22.917l2.083,2.083H41.583
		L31.167,45.833h91.667L112.417,26.906z M29.083,47.917v50h95.833V47.74L29.083,47.917z"/>
	<path fill="#FFFFFF" d="M76.285,38.44l2.367-2.367h14.182v2.5H61.167v-2.5h12.751L76.285,38.44z"/>
	<path fill="#FFFFFF" d="M82.833,2.083l13.333,13.333l-20,20L62.833,22.083L82.833,2.083z"/>
	<path fill="#FDA4AF" d="M79.084,12.5c-3.447,0-6.25,2.804-6.25,6.25S75.637,25,79.084,25c3.445,0,6.25-2.804,6.25-6.25
		S82.529,12.5,79.084,12.5z M78.369,23.511c-0.9-0.136-1.722-0.514-2.386-1.075l2.386-2.104V23.511z M78.369,13.986v4.439
		l-3.328,2.939c-0.49-0.753-0.779-1.65-0.779-2.614c0-2.414,1.785-4.414,4.107-4.761V13.986z M79.797,23.511v-9.525
		c2.322,0.346,4.107,2.346,4.107,4.761C83.904,21.161,82.119,23.161,79.797,23.511z"/>
</g>
<path fill="#94A3B8" d="M3.875,44.818V55H2.643v-8.889h-0.06l-2.486,1.65v-1.253l2.545-1.69H3.875z M9.625,55.139
	c-0.749,0-1.387-0.203-1.914-0.611c-0.527-0.41-0.93-1.006-1.208-1.784c-0.278-0.782-0.417-1.727-0.417-2.834
	c0-1.101,0.139-2.04,0.417-2.819c0.282-0.782,0.686-1.379,1.213-1.79c0.53-0.414,1.167-0.621,1.909-0.621s1.377,0.207,1.904,0.621
	c0.53,0.411,0.935,1.008,1.213,1.79c0.282,0.779,0.423,1.718,0.423,2.819c0,1.107-0.14,2.052-0.418,2.834
	c-0.278,0.778-0.681,1.374-1.208,1.784C11.012,54.936,10.374,55.139,9.625,55.139z M9.625,54.045c0.742,0,1.319-0.357,1.73-1.073
	c0.411-0.716,0.617-1.737,0.617-3.062c0-0.882-0.095-1.632-0.284-2.252c-0.186-0.62-0.454-1.092-0.805-1.417
	c-0.348-0.325-0.767-0.487-1.258-0.487c-0.736,0-1.311,0.363-1.725,1.089c-0.415,0.723-0.622,1.745-0.622,3.067
	c0,0.881,0.093,1.631,0.278,2.247s0.453,1.086,0.801,1.407C8.708,53.885,9.131,54.045,9.625,54.045z M17.875,55.139
	c-0.749,0-1.387-0.203-1.914-0.611c-0.527-0.41-0.93-1.006-1.208-1.784c-0.278-0.782-0.418-1.727-0.418-2.834
	c0-1.101,0.14-2.04,0.418-2.819c0.282-0.782,0.686-1.379,1.213-1.79c0.53-0.414,1.167-0.621,1.909-0.621s1.377,0.207,1.904,0.621
	c0.53,0.411,0.935,1.008,1.213,1.79c0.282,0.779,0.423,1.718,0.423,2.819c0,1.107-0.14,2.052-0.418,2.834
	c-0.278,0.778-0.681,1.374-1.208,1.784C19.262,54.936,18.624,55.139,17.875,55.139z M17.875,54.045c0.742,0,1.319-0.357,1.73-1.073
	c0.411-0.716,0.617-1.737,0.617-3.062c0-0.882-0.095-1.632-0.284-2.252c-0.186-0.62-0.454-1.092-0.805-1.417
	c-0.348-0.325-0.767-0.487-1.258-0.487c-0.736,0-1.311,0.363-1.725,1.089c-0.414,0.723-0.622,1.745-0.622,3.067
	c0,0.881,0.093,1.631,0.278,2.247s0.453,1.086,0.801,1.407C16.958,53.885,17.381,54.045,17.875,54.045z"/>
<path fill="#94A3B8" d="M17.875,103.139c-0.749,0-1.387-0.203-1.914-0.611c-0.527-0.41-0.93-1.006-1.208-1.784
	c-0.278-0.782-0.418-1.728-0.418-2.834c0-1.101,0.14-2.04,0.418-2.819c0.282-0.781,0.686-1.379,1.213-1.789
	c0.53-0.414,1.167-0.621,1.909-0.621s1.377,0.207,1.904,0.621c0.53,0.41,0.935,1.008,1.213,1.789
	c0.282,0.779,0.423,1.719,0.423,2.819c0,1.106-0.14,2.052-0.418,2.834c-0.278,0.778-0.681,1.374-1.208,1.784
	C19.262,102.936,18.624,103.139,17.875,103.139z M17.875,102.045c0.742,0,1.319-0.357,1.73-1.072
	c0.411-0.717,0.617-1.738,0.617-3.063c0-0.882-0.095-1.632-0.284-2.252c-0.186-0.62-0.454-1.093-0.805-1.417
	c-0.348-0.325-0.767-0.487-1.258-0.487c-0.736,0-1.311,0.362-1.725,1.089c-0.414,0.723-0.622,1.744-0.622,3.067
	c0,0.882,0.093,1.631,0.278,2.247c0.186,0.617,0.453,1.086,0.801,1.406C16.958,101.885,17.381,102.045,17.875,102.045z"/>
</svg>
